<?xml version="1.0" standalone="no"?>
<!DOCTYPE svg PUBLIC "-//W3C//DTD SVG 20010904//EN"
 "http://www.w3.org/TR/2001/REC-SVG-20010904/DTD/svg10.dtd">
<svg version="1.0" xmlns="http://www.w3.org/2000/svg"
 width="756.000000pt" height="756.000000pt" viewBox="0 0 756.000000 756.000000"
 preserveAspectRatio="xMidYMid meet">
<metadata>
Created by potrace 1.14, written by Peter Selinger 2001-2017
</metadata>
<g transform="translate(0.000000,756.000000) scale(0.100000,-0.100000)"
fill="#000000" stroke="none">
<path d="M3520 6864 c-19 -2 -78 -9 -130 -15 -826 -92 -1512 -550 -1913 -1277
-209 -378 -337 -829 -389 -1367 -18 -189 -15 -692 6 -890 96 -937 422 -1614
1000 -2078 407 -327 948 -504 1601 -524 569 -17 1095 97 1487 322 767 441
1213 1214 1324 2300 24 230 24 715 0 938 -142 1347 -825 2242 -1916 2511 -258
63 -386 78 -730 81 -168 2 -321 1 -340 -1z m435 -1114 c249 -28 441 -123 607
-299 70 -75 163 -207 183 -261 4 -11 -299 -277 -1051 -924 -580 -499 -1059
-905 -1062 -901 -17 17 -25 419 -14 670 32 707 160 1138 422 1418 218 233 544
339 915 297z m1028 -1712 c21 -352 -10 -822 -73 -1139 -82 -407 -240 -706
-463 -875 -82 -62 -240 -137 -352 -166 -80 -20 -112 -23 -295 -23 -183 0 -215
3 -293 23 -191 51 -338 134 -463 264 -73 75 -169 209 -163 226 4 11 2080 1800
2090 1801 3 1 9 -50 12 -111z"/>
</g>
</svg>
